<svg width="60" height="60" viewBox="0 0 60 60" fill="none" xmlns="http://www.w3.org/2000/svg">
<mask id="mask0_6582_1517" style="mask-type:luminance" maskUnits="userSpaceOnUse" x="0" y="0" width="60" height="60">
<path d="M59.305 0H0V59.305H59.305V0Z" fill="white"/>
</mask>
<g mask="url(#mask0_6582_1517)">
<path d="M12.9428 41.5067C12.4523 41.0959 11.7218 41.1605 11.3111 41.6509L8.41477 45.1089L7.368 44.222C6.87989 43.8085 6.14911 43.8689 5.73549 44.3571C5.32197 44.8451 5.38243 45.5761 5.87054 45.9896L7.80606 47.6294C8.01603 47.8073 8.28166 47.9039 8.55483 47.9039C8.58766 47.9039 8.62057 47.9025 8.65357 47.8996C8.96077 47.8733 9.24492 47.7257 9.44283 47.4893L13.0872 43.1384C13.4977 42.648 13.4331 41.9175 12.9428 41.5067Z" fill="#3BB77E"/>
<path d="M37.0186 18.8574V22.286C37.0186 22.7146 35.3043 24.0003 34.8757 24.0003H27.1615C26.4471 23.8574 25.0186 23.8289 25.0186 24.8574V27.8574L23.3043 28.286C22.8757 28.5717 22.0186 29.2289 22.0186 29.5717C22.0186 30.0003 21.59 30.8574 22.0186 31.286C22.4472 31.7146 23.3042 32.1431 23.7328 32.5717C24.1614 33.0003 25.0186 32.5717 25.0186 33.0003V34.7146C25.0186 35.0574 25.3043 36.0003 25.4471 36.4289C25.7328 36.7145 26.3899 37.286 26.7328 37.286C27.0757 37.286 27.7328 37.5717 28.0185 37.7146V39.0003C28.0185 39.3431 28.59 40.286 28.8757 40.7146C29.3042 41.0002 30.3328 41.5717 31.0185 41.5717C31.8757 41.5717 39.1614 42.4289 40.4471 42.4289C41.4757 42.4289 44.8757 41.8574 46.4471 41.5717L49.4471 39.4289L53.7328 38.5717H56.3042L58.0185 37.7146V35.5717L58.4471 26.5717L57.5899 24.8574H54.5899C54.2471 24.8574 52.7328 23.7146 52.0185 23.1431C51.4471 22.7146 50.3042 21.7717 50.3042 21.4289C50.3042 21.086 47.7328 19.8575 46.4471 19.286L44.7328 18.8574H40.4471H38.3042H37.0186Z" fill="#FDC040"/>
<path d="M21.5898 6.85742V17.1431L25.0185 15.8574L26.3041 15.0003L30.5898 17.1431L31.8756 15.8574L31.447 7.71456L30.1613 6.85742H25.8756H21.5898Z" fill="#FDC040"/>
<path d="M37.0185 18.8574C37.0185 19.8575 37.0185 21.9431 37.0185 22.286M37.0185 18.8574V22.286M37.0185 18.8574H38.3041M37.0185 22.286C37.0185 22.7146 35.3042 24.0003 34.8756 24.0003M38.3041 18.8574H40.447H44.7327L46.447 19.286C47.7327 19.8575 50.3041 21.086 50.3041 21.4289C50.3041 21.7717 51.447 22.7146 52.0184 23.1431C52.7327 23.7146 54.247 24.8574 54.5898 24.8574M38.3041 18.8574H36.5898M34.8756 24.0003C34.5328 24.0003 29.5899 24.0003 27.1614 24.0003M34.8756 24.0003H27.1614M27.1614 24.0003C26.447 23.8574 25.0185 23.8289 25.0185 24.8574M25.0185 24.8574C25.0185 25.886 25.0185 27.286 25.0185 27.8574M25.0185 24.8574V27.8574M25.0185 27.8574L23.3042 28.286C22.8756 28.5717 22.0185 29.2289 22.0185 29.5717C22.0185 30.0003 21.5899 30.8574 22.0185 31.286C22.4471 31.7146 23.3041 32.1431 23.7327 32.5717C24.1613 33.0003 25.0185 32.5717 25.0185 33.0003M25.0185 33.0003C25.0185 33.4289 25.0185 34.286 25.0185 34.7146M25.0185 33.0003V34.7146M25.0185 34.7146C25.0185 35.0574 25.3042 36.0003 25.447 36.4289C25.7327 36.7145 26.3898 37.286 26.7327 37.286C27.0756 37.286 27.7327 37.5717 28.0184 37.7146M28.0184 37.7146C28.0184 38.0003 28.0184 38.6574 28.0184 39.0003M28.0184 37.7146V39.0003M28.0184 39.0003C28.0184 39.3431 28.5899 40.286 28.8756 40.7146C29.3041 41.0003 30.3327 41.5717 31.0184 41.5717C31.8756 41.5717 39.1613 42.4289 40.447 42.4289C41.4756 42.4289 44.8756 41.8574 46.447 41.5717L49.447 39.4289L53.7327 38.5717H56.3041L58.0184 37.7146V35.5717L58.447 26.5717L57.5898 24.8574M57.5898 24.8574C56.7327 24.8574 54.9327 24.8574 54.5898 24.8574M57.5898 24.8574H54.5898M21.5898 6.85742C21.5898 7.20028 21.5898 13.8575 21.5898 17.1431M21.5898 6.85742H25.8756H30.1613L31.447 7.71456L31.8756 15.8574L30.5898 17.1431L26.3041 15.0003L25.0185 15.8574L21.5898 17.1431M21.5898 6.85742V17.1431" stroke="black" stroke-width="0.857143" stroke-linecap="round" stroke-linejoin="round"/>
<path d="M56.852 23.6422H55.1872C53.7929 23.5777 52.6715 22.3901 51.3741 21.0159C50.5071 20.0977 49.5789 19.1146 48.4606 18.3859V8.48427C48.4606 6.74021 47.0417 5.32129 45.2978 5.32129H7.51703C5.77298 5.32129 4.35417 6.74021 4.35417 8.48427V16.5191C4.35417 17.1589 4.87275 17.6775 5.51247 17.6775C6.1522 17.6775 6.67077 17.1589 6.67077 16.5191V8.48427C6.67077 8.02557 7.05834 7.63789 7.51703 7.63789H20.3347V17.8862C20.3347 18.3072 20.5632 18.6952 20.9314 18.8993C21.1063 18.9963 21.2997 19.0445 21.4929 19.0445C21.7063 19.0445 21.9194 18.9856 22.1068 18.8684L26.4088 16.1796L30.7076 18.8683C31.0648 19.0915 31.5148 19.1036 31.8832 18.8994C32.2516 18.6953 32.4802 18.3075 32.4802 17.8863V7.63789H45.298C45.7566 7.63789 46.1442 8.02546 46.1442 8.48427V17.4039C45.7674 17.325 45.3718 17.2776 44.9536 17.2702C44.9467 17.2701 44.94 17.2701 44.9332 17.2701H41.9987H39.7196H38.4069C38.4008 17.2701 38.395 17.2701 38.3889 17.2702C36.9926 17.2919 36.2751 17.9249 35.919 18.452C35.3664 19.2702 35.3152 20.3784 35.7744 21.5711C35.8813 21.8496 36.0116 22.1129 36.1618 22.3605H27.3784C25.4914 22.3605 23.9559 23.8958 23.9559 25.7829C23.9559 26.1709 24.0208 26.5441 24.1401 26.8921H23.8326C21.9455 26.8921 20.4102 28.4274 20.4102 30.3147C20.4102 32.2019 21.9455 33.7372 23.8326 33.7372H24.1392C24.0205 34.0842 23.9559 34.4562 23.9559 34.8431C23.9559 36.6713 25.3938 38.1695 27.1969 38.2642C27.0771 38.6126 27.0119 38.9862 27.0119 39.3749C27.0119 41.2621 28.5472 42.7974 30.4344 42.7974H44.785C45.2793 42.7974 45.7292 42.737 46.1439 42.6334V46.2629C46.1439 46.7234 45.7563 47.1124 45.2976 47.1124H18.4678C18.6951 46.3032 18.8193 45.4512 18.8193 44.5704C18.8193 39.3816 14.5981 35.1603 9.40946 35.1603C8.45701 35.1603 7.53753 35.3037 6.67042 35.5681V26.9331C6.67042 26.2934 6.15185 25.7748 5.51212 25.7748C4.87239 25.7748 4.35382 26.2934 4.35382 26.9331V36.6401C1.73873 38.3135 0 41.2418 0 44.5704C0 49.761 4.2212 53.9838 9.40981 53.9838C12.8225 53.9838 15.8164 52.1567 17.4663 49.4291H45.298C47.0419 49.4291 48.4608 48.0088 48.4608 46.263V41.4939C48.7165 41.3111 48.961 41.1236 49.1981 40.9408C50.221 40.1525 51.1044 39.4718 52.511 39.4718H56.8521C58.2046 39.4718 59.3051 38.3729 59.3051 37.022V26.0953C59.305 24.7425 58.2046 23.6422 56.852 23.6422ZM30.1635 15.7955L27.0233 13.8314C26.6476 13.5966 26.171 13.5965 25.7951 13.8313L22.6513 15.7962V7.63789H30.1635V15.7955ZM9.40981 51.6672C5.49857 51.6672 2.3166 48.4836 2.3166 44.5704C2.3166 40.6591 5.49857 37.477 9.40981 37.477C13.321 37.477 16.503 40.6591 16.503 44.5704C16.503 48.4836 13.321 51.6672 9.40981 51.6672ZM56.9884 37.022C56.9884 37.0931 56.9248 37.1552 56.852 37.1552H52.5109C50.3151 37.1552 48.9705 38.1915 47.784 39.1058C46.7871 39.8741 45.9996 40.4809 44.7851 40.4809H30.4346C29.8249 40.4809 29.3288 39.9848 29.3288 39.375C29.3288 38.7652 29.8249 38.2691 30.4346 38.2691H34.2795C34.9192 38.2691 35.4378 37.7505 35.4378 37.1107C35.4378 36.471 34.9192 35.9525 34.2795 35.9525H27.3785C26.7687 35.9525 26.2727 35.455 26.2727 34.8432C26.2727 34.2334 26.7688 33.7373 27.3785 33.7373H34.2795C34.9192 33.7373 35.4378 33.2188 35.4378 32.579C35.4378 31.9393 34.9192 31.4207 34.2795 31.4207H23.8328C23.223 31.4207 22.7269 30.9246 22.7269 30.3148C22.7269 29.7049 23.223 29.2088 23.8328 29.2088H34.2795C34.9192 29.2088 35.4378 28.6902 35.4378 28.0506C35.4378 27.4108 34.9192 26.8922 34.2795 26.8922H27.3785C26.7687 26.8922 26.2727 26.3946 26.2727 25.7831C26.2727 25.1732 26.7688 24.6772 27.3785 24.6772H40.3029H42.8169H44.4962C45.1359 24.6772 45.6544 24.1586 45.6544 23.5189C45.6544 22.8791 45.1359 22.3606 44.4962 22.3606H42.8169H40.3029C39.2435 22.3606 38.3149 21.7248 37.9368 20.74C37.7165 20.1676 37.7765 19.8412 37.839 19.7485C37.9018 19.6556 38.128 19.5923 38.4167 19.5868H41.9987H44.9225C46.8758 19.6259 48.2427 21.0737 49.6899 22.6064C51.2038 24.2099 52.7692 25.8678 55.1187 25.9579C55.1334 25.9585 55.1482 25.9588 55.1631 25.9588H56.8522C56.9261 25.9588 56.9887 26.0213 56.9887 26.0951L56.9884 37.022Z" fill="#3BB77E"/>
<path d="M5.51182 22.8863C6.15155 22.8863 6.67012 22.3644 6.67012 21.7247C6.67012 21.085 6.15155 20.5664 5.51182 20.5664C4.8721 20.5664 4.35352 21.085 4.35352 21.7247V21.7313C4.35352 22.3709 4.8721 22.8863 5.51182 22.8863Z" fill="#3BB77E"/>
</g>
</svg>
