<svg width="60" height="60" viewBox="0 0 60 60" fill="none" xmlns="http://www.w3.org/2000/svg">
<mask id="mask0_6582_1448" style="mask-type:luminance" maskUnits="userSpaceOnUse" x="0" y="0" width="60" height="60">
<path d="M59.305 0H0V59.305H59.305V0Z" fill="white"/>
</mask>
<g mask="url(#mask0_6582_1448)">
<path d="M37.9805 28.2857L40.9805 23.5714L45.2662 21.4286C45.8376 21.2857 47.0662 21.0857 47.409 21.4286C47.7519 21.7714 52.6948 28.4286 55.1233 31.7143L57.2662 35.5714C56.8376 36.4286 55.8948 38.2286 55.5519 38.5714C55.209 38.9143 51.9804 40.4286 50.409 41.1429C49.5519 41.2857 47.7519 41.5714 47.409 41.5714C47.0662 41.5714 42.9804 36.1429 40.9805 33.4286L38.7305 29.5714L37.9805 28.2857Z" fill="#FDC040"/>
<path d="M47.4102 41.5713C47.0673 41.5713 42.9816 36.1427 40.9816 33.4284L38.7316 29.5713H37.1244H32.8387C32.4102 29.5713 30.2673 30.4284 29.4102 30.857L26.8387 32.1427C25.9816 32.5713 25.1244 33.4284 24.6959 33.857C24.2673 34.2856 23.4102 35.5713 23.4102 35.9999C23.4102 36.4284 23.4102 37.2856 23.8387 37.7141C24.2673 38.1427 25.1244 38.5713 25.553 38.5713H28.1244C28.8102 38.5713 30.6959 37.7141 31.553 37.2856C31.8387 37.4285 32.4959 37.7999 32.8387 38.1427C33.1816 38.4856 36.1244 40.5713 37.553 41.5713L40.9816 44.9999C41.553 45.2855 42.7816 45.7713 43.1244 45.4284C43.4673 45.0856 44.6958 44.1427 45.2673 43.7141L46.553 42.857L47.4102 41.5713Z" fill="#FDC040"/>
<path d="M13.123 46.2859C13.123 46.9716 14.2659 48.2859 14.8373 48.8573L17.8373 51.4287L19.5516 52.7145L21.2659 54.4287C21.8374 54.7144 22.9802 55.3716 22.9802 55.7145C22.9802 56.0573 24.6945 56.4287 25.5516 56.5716C25.9802 56.2859 26.923 55.6287 27.2659 55.2859C27.6945 54.8573 27.6945 54.8573 27.6945 54.0002C27.6945 53.143 27.6945 52.2859 27.2659 51.4287C26.8373 50.5716 26.8373 48.8573 26.4088 48.4287C25.9802 48.0002 24.2659 47.143 24.2659 46.7145C24.2659 46.2859 22.9802 44.5716 22.5516 44.143C22.123 43.7145 21.2659 42.0002 20.8373 41.5716C20.4088 41.143 19.123 40.2859 18.2659 40.7145C17.4088 41.143 14.8373 43.2859 14.4088 43.7145C14.0659 44.0573 13.4087 45.5716 13.123 46.2859Z" fill="#FDC040"/>
<path d="M21.2673 4.28613C23.8387 7.85756 31.2102 14.829 40.1244 14.1433L38.4102 19.2861L35.8387 21.429L27.6959 24.0004L21.2673 21.8576L17.4102 15.0004L17.8387 9.42899L19.9816 5.57185L21.2673 4.28613Z" fill="#FDC040"/>
<path d="M28.6948 15.4068C28.2423 15.4068 27.6875 15.3406 27.3076 14.9173C27.1755 14.7686 27.0598 14.6296 26.9476 14.5138C26.0426 13.5615 24.4837 14.8843 25.4283 16.1209L25.6562 16.4152C25.8048 16.6006 26.0724 16.8154 26.4554 17.0602C26.8287 17.298 27.2448 17.47 27.7072 17.5726V19.2063C27.7072 19.7684 28.1661 20.2313 28.7278 20.2313C29.2926 20.2313 29.7714 19.7684 29.7714 19.2063V17.5627C30.5112 17.3909 31.1454 17.0303 31.6639 16.4848C32.1855 15.939 32.4465 15.215 32.4465 14.3122C32.4465 13.6972 32.3278 13.1847 32.0899 12.7712C31.8521 12.3611 31.5614 12.0736 31.2146 11.9114C30.8646 11.7493 30.4848 11.6071 30.0653 11.4849C29.6492 11.3626 29.2694 11.2765 28.9193 11.2237C28.5726 11.1739 28.2819 11.068 28.0441 10.9128C27.8062 10.7539 27.6874 10.549 27.6874 10.2943C27.6874 9.0775 29.4708 9.22622 30.2568 9.88759C31.416 10.8631 32.7139 9.0775 31.3698 8.06894L31.2145 7.92994C31.1088 7.84747 30.9239 7.74484 30.6564 7.61581C30.3921 7.487 30.0948 7.39098 29.7713 7.32148V6.33287V5.90303C29.7713 5.34079 29.3121 4.87793 28.7474 4.87793C28.1859 4.87793 27.7236 5.34068 27.7236 5.90303V7.30503C26.9705 7.45388 26.3463 7.82766 25.9138 8.37971C25.4778 8.94199 25.2565 9.56376 25.2565 10.2579C25.2565 10.9558 25.4185 11.5278 25.742 11.9809C26.0657 12.4336 26.4588 12.7512 26.9244 12.9364C27.3868 13.1217 27.8491 13.2706 28.3115 13.3795C28.7771 13.4921 29.1703 13.6143 29.4937 13.7566C29.8175 13.8954 29.9793 14.0906 29.9793 14.3452C29.9794 15.0528 29.5501 15.4068 28.6948 15.4068Z" fill="#3BB77E"/>
<path d="M58.0808 33.4572L48.5633 21.2663C47.9222 20.443 46.9502 19.9707 45.8968 19.9707C45.1532 19.9707 44.4493 20.2068 43.8586 20.655L37.6299 25.403C36.9169 25.9464 36.4614 26.7349 36.3473 27.6234C36.3302 27.7558 36.3221 27.8878 36.3208 28.0192C33.9462 27.8393 31.4936 28.0201 29.1118 29.5683L29.005 29.6376L22.9797 28.7162C22.992 28.5076 22.9853 28.2965 22.9578 28.0846C22.843 27.1983 22.3883 26.4115 21.6767 25.869L15.4464 21.1253C13.9867 20.009 11.8762 20.2802 10.7411 21.7314L8.47229 24.6381C8.07521 25.1466 8.16578 25.8806 8.67432 26.2775C9.18286 26.6745 9.91691 26.5839 10.3139 26.0754L12.582 23.1697C12.9254 22.7307 13.5872 22.6443 14.0292 22.9824L20.2609 27.7272C20.4719 27.8881 20.6069 28.1217 20.6411 28.3851C20.6752 28.6488 20.6039 28.9099 20.4413 29.1187L10.922 41.3116C10.5809 41.7496 9.91829 41.8351 9.47694 41.5005L3.24798 36.7519C3.03578 36.5903 2.90015 36.3558 2.8662 36.0921C2.8325 35.8296 2.90374 35.5703 3.06763 35.3609L4.68601 33.2876C5.08296 32.7791 4.9925 32.0451 4.48389 31.6482C3.9754 31.251 3.24138 31.3417 2.84431 31.8503L1.22687 33.9223C0.67586 34.6267 0.435165 35.503 0.549142 36.3898C0.663234 37.278 1.11891 38.0666 1.83173 38.6099L8.06269 43.3601C8.66909 43.82 9.38574 44.0425 10.0977 44.0424C10.5095 44.0424 10.9192 43.9668 11.3055 43.8209L12.1119 44.9253C11.6735 45.7248 11.6052 46.6854 11.9575 47.6123C12.461 48.9377 13.6491 49.8362 14.9345 49.879C14.9743 50.0678 15.0295 50.2565 15.1049 50.4433C15.6231 51.7271 16.8061 52.6008 18.0773 52.6584C18.0832 52.6917 18.0875 52.7251 18.0944 52.7586C18.3363 53.934 19.238 54.9378 20.3915 55.3159C20.6854 55.4123 20.9817 55.4617 21.2751 55.4705C21.3875 55.9437 21.6223 56.4008 21.9834 56.802C22.5462 57.4277 23.3679 57.828 24.2693 57.8278C24.9239 57.8278 25.6205 57.6154 26.2902 57.1259L27.6129 58.3623C28.2866 58.991 29.1347 59.3049 29.9747 59.3049C30.8268 59.3048 31.6703 58.9818 32.3144 58.3371C32.6985 57.9527 32.9961 57.4953 33.1886 57.0138C33.5168 57.1135 33.8375 57.1608 34.1451 57.1608C35.0114 57.1607 35.7759 56.7948 36.3236 56.2307C36.7718 55.7691 37.0926 55.1546 37.2345 54.4996C37.2819 54.502 37.3293 54.504 37.3769 54.5044C37.3886 54.5046 37.4 54.5046 37.4117 54.5046C38.3331 54.5046 39.2171 54.1476 39.8414 53.5224C40.2788 53.0846 40.5797 52.5457 40.7233 51.9572C40.9462 52.0007 41.17 52.0234 41.3933 52.0234C41.6744 52.0234 41.9549 51.9885 42.2311 51.9177C43.3575 51.6291 44.2273 50.7487 44.501 49.6202C44.7536 48.5789 44.4934 47.4819 43.7849 46.4848C45.6193 45.0089 46.3613 44.2818 47.1994 42.9224C47.7718 43.3435 48.4686 43.5755 49.2051 43.5755C49.9508 43.5755 50.6561 43.3377 51.2424 42.8893L57.4751 38.1438C58.1861 37.6018 58.6409 36.8152 58.7559 35.9287C58.8707 35.0415 58.6314 34.164 58.0808 33.4572ZM15.5455 47.3033C15.3666 47.4649 15.1931 47.547 15.0297 47.547C14.6942 47.547 14.3041 47.2114 14.1413 46.7827C13.9934 46.3934 14.0623 46.0681 14.3468 45.8155L14.3506 45.8123L14.3541 45.8092L18.2893 42.3114C18.6185 42.0193 18.9498 41.865 19.2476 41.865C19.6834 41.865 20.0092 42.1958 20.1275 42.5035C20.254 42.8321 20.1779 43.1253 19.9026 43.3742L19.2167 43.9928L19.2149 43.9944C19.2114 43.9974 19.2083 44.0004 19.2048 44.0034C19.1803 44.0256 19.1549 44.0485 19.1299 44.0712L15.5455 47.3033ZM18.7264 50.0952C18.549 50.2518 18.38 50.3278 18.21 50.3278C17.8554 50.3278 17.4432 49.9946 17.2715 49.5689C17.0821 49.1 17.3068 48.8835 17.3777 48.8149C17.4234 48.7712 17.4782 48.7187 17.5353 48.6576L17.5363 48.6566L17.5484 48.646C17.7731 48.4452 19.7518 46.6574 20.6972 45.8032L20.7677 45.7397C21.0881 45.4584 21.4126 45.3098 21.7067 45.3098C22.1705 45.3098 22.5157 45.6648 22.6403 45.9944C22.7641 46.3222 22.6898 46.6091 22.4204 46.8463L22.1781 47.0594C22.1763 47.061 22.1745 47.0623 22.1728 47.064L22.1711 47.0657L18.7264 50.0952ZM22.208 52.6164C22.1919 52.6308 22.1767 52.646 22.1611 52.6608L21.887 52.9081C21.6434 53.1282 21.3995 53.1882 21.1192 53.0962C20.7648 52.98 20.4554 52.64 20.3829 52.2879C20.3198 51.9817 20.4424 51.698 20.7535 51.4237L21.1433 51.0832C21.1531 51.0746 21.1616 51.0652 21.1711 51.0564L23.7242 48.8111C24.336 48.2702 24.9419 48.216 25.3452 48.6669C25.402 48.7304 25.8829 49.3021 25.2958 49.8325L23.7278 51.2474C23.711 51.2622 23.6939 51.2755 23.6773 51.2907C23.6714 51.2962 23.6665 51.3024 23.6607 51.3078L22.2259 52.6024C22.2202 52.6074 22.2137 52.6112 22.208 52.6164ZM23.7203 55.2395C23.5972 55.1028 23.3597 54.7485 23.7492 54.3744L25.3134 52.963C25.4318 52.8618 25.5459 52.7814 25.6527 52.7263C25.6575 52.7238 25.6625 52.7212 25.6673 52.7187C26.2979 52.3819 26.6395 52.7745 26.7294 52.9027C26.8449 53.0676 26.9857 53.3916 26.6316 53.7097L25.56 54.673C25.5559 54.6766 25.552 54.6803 25.5479 54.6839L25.0834 55.1014C24.3199 55.7867 23.8469 55.3806 23.7203 55.2395ZM42.2306 49.0696C42.1588 49.3655 41.9477 49.5787 41.6513 49.6548C41.1599 49.7805 40.5379 49.5077 39.9684 48.9234C39.9257 48.8761 39.8819 48.8296 39.8362 48.7845L35.427 44.426C34.968 43.9727 34.2285 43.9769 33.7751 44.4357C33.3215 44.8944 33.3257 45.6341 33.7845 46.0875L38.1866 50.4389C38.194 50.4467 38.2014 50.4543 38.2086 50.4621C38.3845 50.643 38.4823 50.8846 38.4834 51.1462C38.4845 51.4224 38.3797 51.68 38.1884 51.8716C37.9997 52.0607 37.7174 52.1685 37.4123 52.1685C37.4081 52.1685 37.4039 52.1685 37.3996 52.1683C37.1295 52.1658 36.883 52.0753 36.7095 51.9174C36.6364 51.823 36.5568 51.7314 36.4693 51.6435L33.2459 48.4162C32.79 47.9599 32.0504 47.9594 31.594 48.4152C31.1375 48.871 31.1371 49.6105 31.5929 50.067L34.6498 53.1276C34.6866 53.1816 34.7275 53.2335 34.7745 53.2821L34.9046 53.4162C35.0722 53.7354 34.9683 54.273 34.6475 54.6036C34.1524 55.1134 33.4556 54.6639 32.9592 54.1977L31.5788 52.8982C31.1091 52.456 30.3697 52.4784 29.9276 52.948C29.4854 53.4178 29.5077 54.1571 29.9774 54.5993L31.0319 55.5918C31.0345 55.5942 31.0366 55.5969 31.0391 55.5992C31.0632 55.6218 31.0995 55.6558 31.1013 55.7736C31.1058 56.0473 30.9251 56.4227 30.6617 56.6862C30.2774 57.0708 29.6384 57.0571 29.2076 56.655L28.0517 55.5746L28.1929 55.4475C29.3392 54.4182 29.5241 52.8209 28.6428 51.5627C28.356 51.1532 27.9968 50.8351 27.5939 50.6144C28.1619 49.4942 28.0031 48.1341 27.0863 47.1094C26.5691 46.5312 25.8386 46.1363 25.0231 46.0488C24.9998 45.7558 24.9357 45.4604 24.8257 45.1692C24.4289 44.1186 23.5469 43.3453 22.5088 43.0776C22.552 42.6121 22.4877 42.1317 22.3079 41.6643C21.8163 40.3871 20.5866 39.5287 19.2477 39.5287C18.3697 39.5287 17.5024 39.8866 16.7384 40.5642L13.7561 43.2151L13.1005 42.3174L21.9923 30.9285L26.0577 31.5503L25.4427 31.9493C22.1484 34.0866 21.9073 36.5722 22.7802 38.1858C23.4788 39.4775 24.873 40.2157 26.353 40.2157C26.9622 40.2156 27.5863 40.0905 28.182 39.8273C28.1978 39.8202 28.2134 39.813 28.2287 39.8053L31.3085 38.2783L33.0863 39.8971C33.0881 39.8987 33.0899 39.8999 33.0915 39.9014C33.0932 39.903 33.0947 39.9046 33.0964 39.9062L41.3136 47.2142C42.0177 47.8403 42.3605 48.5339 42.2306 49.0696ZM42.1324 44.8162L34.654 38.1652L32.291 36.0138C31.9352 35.6896 31.4168 35.6169 30.9857 35.8308L27.2161 37.7C26.192 38.1405 25.1846 37.7214 24.8348 37.0746C24.3541 36.186 25.0741 34.973 26.714 33.9092L30.3841 31.5276C32.3741 30.234 34.4615 30.1343 37.3171 30.4656L45.5856 41.0603C44.7131 42.6272 44.2497 43.1246 42.1324 44.8162ZM56.439 35.6284C56.405 35.8914 56.2699 36.1249 56.0593 36.2855L49.8251 41.0321C49.6013 41.2034 49.3645 41.2393 49.2053 41.2393C48.8777 41.2392 48.5768 41.095 48.3809 40.8444L38.8649 28.6514C38.7017 28.4428 38.6305 28.1835 38.6643 27.921C38.6982 27.6572 38.8337 27.4226 39.0461 27.2609L45.2729 22.5142C45.4988 22.3429 45.7367 22.3069 45.8966 22.3069C46.2246 22.3069 46.5247 22.4507 46.7209 22.7026L56.2385 34.8936C56.402 35.1037 56.4733 35.3646 56.439 35.6284Z" fill="#3BB77E"/>
<path d="M22.7981 23.7293C24.632 24.7189 26.7036 25.2419 28.7891 25.2419C35.7414 25.2419 41.3977 19.5794 41.3977 12.6192C41.3977 7.76155 38.5617 3.28193 34.1737 1.20706C32.4834 0.406101 30.6717 0 28.7891 0C21.8383 0 16.1836 5.66097 16.1836 12.6192C16.1836 17.2601 18.7174 21.5169 22.7981 23.7293ZM28.7891 2.33607C30.3229 2.33607 31.7981 2.66653 33.1742 3.31842C36.7505 5.00943 39.0614 8.66031 39.0614 12.6192C39.0614 18.2913 34.4533 22.9059 28.7892 22.9059C27.0897 22.9059 25.4017 22.4796 23.9096 21.6746C20.585 19.8719 18.5197 16.4021 18.5197 12.6192C18.5197 6.94911 23.1264 2.33607 28.7891 2.33607Z" fill="#3BB77E"/>
<path d="M5.84968 29.874C6.06478 30.0457 6.32204 30.1291 6.57755 30.1291C6.92065 30.1291 7.26061 29.9786 7.49122 29.6895L7.50443 29.673C7.90683 29.1688 7.82423 28.4338 7.32003 28.0314C6.81582 27.6293 6.08076 27.7115 5.67849 28.2159L5.66528 28.2325C5.26288 28.7367 5.34547 29.4716 5.84968 29.874Z" fill="#3BB77E"/>
</g>
</svg>
