<svg width="60" height="60" viewBox="0 0 60 60" fill="none" xmlns="http://www.w3.org/2000/svg">
<g clip-path="url(#clip0_6582_1464)">
<mask id="mask0_6582_1464" style="mask-type:luminance" maskUnits="userSpaceOnUse" x="0" y="0" width="60" height="60">
<path d="M59.6292 0H0.324219V59.305H59.6292V0Z" fill="white"/>
</mask>
<g mask="url(#mask0_6582_1464)">
<path d="M40.286 57.4284C48.807 57.4284 55.7146 50.5208 55.7146 41.9999C55.7146 33.4789 48.807 26.5713 40.286 26.5713C31.765 26.5713 24.8574 33.4789 24.8574 41.9999C24.8574 50.5208 31.765 57.4284 40.286 57.4284Z" fill="#FDC040"/>
<path d="M43.4066 25.6726V14.4494C43.4066 14.1281 43.2583 13.8313 43.0483 13.5964L30.4654 0.383235C30.2305 0.136191 29.8966 0 29.5632 0H9.61325C5.93018 0 2.98828 3.00344 2.98828 6.68693V44.4109C2.98828 48.0944 5.93018 51.0485 9.61325 51.0485H25.3607C28.3392 55.9926 33.7534 59.305 39.9209 59.305C49.2901 59.305 56.9412 51.691 56.9412 42.3097C56.9539 34.1147 51.07 27.2672 43.4066 25.6726ZM30.7993 4.33865L39.2413 13.2255H33.7657C32.1341 13.2255 30.7993 11.8785 30.7993 10.2469V4.33865ZM9.61325 48.5763C7.30205 48.5763 5.46053 46.7221 5.46053 44.4109V6.68693C5.46053 4.36309 7.30205 2.47225 9.61325 2.47225H28.327V10.2469C28.327 13.2503 30.7621 15.6977 33.7657 15.6977H40.9345V25.3509C40.5638 25.3388 40.267 25.3017 39.9458 25.3017C35.632 25.3017 31.6644 26.9581 28.6732 29.5539H12.9755C12.2954 29.5539 11.7393 30.11 11.7393 30.7895C11.7393 31.4696 12.2954 32.0257 12.9755 32.0257H26.3742C25.4964 33.2618 24.767 34.4979 24.1987 35.8575H12.9755C12.2954 35.8575 11.7393 36.4137 11.7393 37.0937C11.7393 37.7733 12.2954 38.3298 12.9755 38.3298H23.3952C23.0862 39.566 22.9255 40.9378 22.9255 42.3097C22.9255 44.5344 23.3581 46.7348 24.1368 48.5889H9.61325V48.5763ZM39.9336 56.8455C31.9241 56.8455 25.41 50.3313 25.41 42.3219C25.41 34.3125 31.9114 27.7983 39.9336 27.7983C47.9552 27.7983 54.4567 34.3125 54.4567 42.3219C54.4567 50.3313 47.9431 56.8455 39.9336 56.8455Z" fill="#3BB77E"/>
<path d="M12.9763 25.8336H25.4973C26.1773 25.8336 26.7335 25.277 26.7335 24.5975C26.7335 23.9174 26.1773 23.3613 25.4973 23.3613H12.9763C12.2963 23.3613 11.7402 23.9174 11.7402 24.5975C11.7402 25.277 12.2963 25.8336 12.9763 25.8336Z" fill="#3BB77E"/>
<path d="M39.5246 34.696C39.6237 34.7205 39.7223 34.7331 39.8214 34.7331C39.9449 34.7331 40.0563 34.7205 40.1675 34.6833C41.7991 34.8195 43.0724 36.1792 43.0724 37.8357C43.0724 38.5153 43.6284 39.0713 44.308 39.0713C44.9881 39.0713 45.5441 38.5153 45.5441 37.8357C45.5441 35.1164 43.6162 32.8419 41.0575 32.3103V31.5193C41.0575 30.8392 40.501 30.2832 39.8214 30.2832C39.1413 30.2832 38.5852 30.8392 38.5852 31.5193V32.36C36.1131 32.9532 34.2715 35.1906 34.2715 37.8357C34.2715 40.9504 36.8053 43.472 39.9078 43.472C41.6507 43.472 43.0724 44.8932 43.0724 46.636C43.0724 48.3789 41.6629 49.8128 39.9078 49.8128C38.165 49.8128 36.7437 48.3911 36.7437 46.6483C36.7437 45.9687 36.1872 45.4121 35.5077 45.4121C34.8276 45.4121 34.2715 45.9687 34.2715 46.6483C34.2715 49.306 36.1131 51.5307 38.5852 52.124V53.3972C38.5852 54.0772 39.1413 54.6333 39.8214 54.6333C40.501 54.6333 41.0575 54.0772 41.0575 53.3972V52.1611C43.6162 51.6294 45.5441 49.3553 45.5441 46.636C45.5441 43.5213 43.0103 40.9997 39.9078 40.9997C38.165 40.9997 36.7437 39.5781 36.7437 37.8357C36.7437 36.2285 37.955 34.8816 39.5246 34.696Z" fill="#3BB77E"/>
</g>
</g>
<defs>
<clipPath id="clip0_6582_1464">
<rect width="60" height="60" fill="white"/>
</clipPath>
</defs>
</svg>
