<svg width="60" height="60" viewBox="0 0 60 60" fill="none" xmlns="http://www.w3.org/2000/svg">
<g clip-path="url(#clip0_6582_1501)">
<mask id="mask0_6582_1501" style="mask-type:luminance" maskUnits="userSpaceOnUse" x="0" y="0" width="60" height="60">
<path d="M59.8377 0H0.648438V59.1892H59.8377V0Z" fill="white"/>
</mask>
<g mask="url(#mask0_6582_1501)">
<path d="M12.4277 14.1426V29.9997C15.4277 28.9997 22.7992 28.7997 28.2849 35.9997C29.5706 38.714 31.6277 44.9997 29.5706 48.4283L35.5706 51.8569V26.1426L12.4277 14.1426Z" fill="#FDC040"/>
<path d="M59.2379 12.8018L36.1857 0.143562C35.8394 -0.0465519 35.4194 -0.0465519 35.0731 0.143562L26.3843 4.91448C26.201 4.9628 26.0298 5.05493 25.888 5.18724L12.0213 12.8018C11.6516 13.0045 11.4217 13.3928 11.4217 13.8151V29.1245C9.08253 29.8561 6.93886 31.1462 5.15648 32.929C0.510651 37.5744 -0.673837 44.6596 2.20903 50.5595C2.48901 51.133 3.18128 51.371 3.75479 51.0906C4.32874 50.8101 4.56627 50.1179 4.28629 49.5444C1.83694 44.5314 2.8435 38.5114 6.7912 34.5638C9.25996 32.0949 12.542 30.7352 16.0332 30.7352C19.5243 30.7352 22.8064 32.0949 25.2752 34.5638C27.7435 37.0321 29.1032 40.3142 29.1032 43.8053C29.1032 47.2964 27.7435 50.5785 25.2747 53.0473C21.3271 56.9949 15.307 58.0016 10.2941 55.5522C9.72059 55.2717 9.02827 55.5098 8.74833 56.0832C8.46791 56.6572 8.70547 57.3494 9.27942 57.6294C11.4284 58.6798 13.7342 59.1901 16.0232 59.1901C20.0166 59.1896 23.9566 57.6353 26.9099 54.682C28.2642 53.3277 29.3344 51.7652 30.0917 50.0668L35.0731 52.802C35.2465 52.8974 35.438 52.9448 35.6294 52.9448C35.8208 52.9448 36.0128 52.8974 36.1857 52.802L59.2379 40.1444C59.6078 39.9411 59.8376 39.5528 59.8376 39.131V31.097C59.8376 30.4585 59.3201 29.9409 58.6815 29.9409C58.043 29.9409 57.5255 30.4585 57.5255 31.097V38.4469L36.7891 49.8334V27.1551L43.6328 23.3971V29.3543C43.6328 29.7635 43.8486 30.1418 44.2004 30.3496C44.3819 30.4567 44.5851 30.5103 44.7888 30.5103C44.9803 30.5103 45.1722 30.4629 45.346 30.3672L50.2858 27.6482C50.6552 27.445 50.8842 27.0572 50.8842 26.6359V19.4151L57.5255 15.7686V21.8491C57.5255 22.4876 58.043 23.0052 58.6815 23.0052C59.3201 23.0052 59.8376 22.4876 59.8376 21.8491V13.8151C59.8376 13.3933 59.6078 13.0045 59.2379 12.8018ZM35.6294 2.47551L56.2796 13.8151L49.7656 17.392L29.1154 6.05246L35.6294 2.47551ZM35.6294 25.1542L14.9792 13.8151L21.7321 10.1067L42.3828 21.4459L35.6294 25.1542ZM44.7842 20.1272L24.134 8.7881L26.7134 7.37152L47.3641 18.7106L44.7842 20.1272ZM26.9099 32.929C24.0044 30.0236 20.1416 28.4236 16.0332 28.4236C15.256 28.4236 14.4884 28.481 13.7337 28.5934V15.7686L34.4774 27.1592V49.8374L30.877 47.8604C31.2315 46.5554 31.4149 45.1943 31.4149 43.8053C31.4149 39.6968 29.8149 35.834 26.9099 32.929ZM48.5726 25.9526L45.9448 27.399V22.1277L48.5726 20.6849V25.9526Z" fill="#3BB77E"/>
<path d="M58.6814 25.3105C58.3776 25.3105 58.079 25.4343 57.8641 25.6493C57.6492 25.8642 57.5254 26.1623 57.5254 26.4666C57.5254 26.7705 57.6492 27.0685 57.8641 27.2835C58.079 27.4989 58.3776 27.6222 58.6814 27.6222C58.9854 27.6222 59.2838 27.4989 59.4988 27.2835C59.7138 27.0685 59.8375 26.7705 59.8375 26.4666C59.8375 26.1623 59.7138 25.8642 59.4988 25.6493C59.2838 25.4343 58.9854 25.3105 58.6814 25.3105Z" fill="#3BB77E"/>
<path d="M12.1451 44.9604C12.4409 44.9604 12.7371 44.8475 12.9624 44.6222C13.414 44.1705 13.414 43.4385 12.9624 42.987L12.1618 42.1859H18.9941C20.6514 42.1859 21.9998 43.5343 21.9998 45.1916C21.9998 46.8488 20.6514 48.1973 18.9941 48.1973H14.9457C14.3072 48.1973 13.7897 48.7148 13.7897 49.3533C13.7897 49.9914 14.3072 50.5089 14.9457 50.5089H18.9941C21.9263 50.5089 24.3119 48.1237 24.3119 45.1916C24.3119 42.2594 21.9263 39.8743 18.9941 39.8743H12.1618L12.9624 39.0731C13.414 38.6216 13.414 37.8896 12.9624 37.438C12.5112 36.9868 11.7792 36.9868 11.3277 37.438L8.55319 40.2125C8.10206 40.664 8.10206 41.396 8.55319 41.8477L11.3277 44.6216C11.5535 44.8475 11.8493 44.9604 12.1451 44.9604Z" fill="#3BB77E"/>
<path d="M5.97512 55.0221C5.64637 55.0221 5.31988 54.8821 5.09183 54.6107L5.08958 54.608C4.67864 54.1194 4.74186 53.3905 5.23047 52.9796C5.71907 52.5682 6.44837 52.6314 6.85931 53.12C7.26979 53.6091 7.20793 54.3393 6.71931 54.7502C6.50211 54.9327 6.23794 55.0221 5.97512 55.0221Z" fill="#3BB77E"/>
</g>
</g>
<defs>
<clipPath id="clip0_6582_1501">
<rect width="60" height="60" fill="white"/>
</clipPath>
</defs>
</svg>
