<svg width="60" height="60" viewBox="0 0 60 60" fill="none" xmlns="http://www.w3.org/2000/svg">
<g clip-path="url(#clip0_6582_1428)">
<mask id="mask0_6582_1428" style="mask-type:luminance" maskUnits="userSpaceOnUse" x="0" y="0" width="60" height="60">
<path d="M59.305 0H0V59.305H59.305V0Z" fill="white"/>
</mask>
<g mask="url(#mask0_6582_1428)">
<path d="M37.7146 4.28516H29.1431L18.8574 14.5709L24.0003 17.5709L29.1431 12.428L39.8574 23.1423L43.7146 27.8566L49.286 28.7137L51.8574 23.9994V7.71373L47.5717 4.28516H37.7146Z" fill="#FDC040"/>
<path d="M55.3668 12.3323H53.048L53.0502 8.18683C53.0516 5.40374 50.7888 3.13827 48.0052 3.1369L30.4063 3.12695H30.4041C29.4023 3.12695 28.4603 3.51698 27.7517 4.22553L1.47819 30.499C0.524855 31.4524 0 32.7197 0 34.0681C0 35.4165 0.524855 36.6837 1.47819 37.6371L18.5288 54.6877C19.5129 55.6718 20.8055 56.1636 22.0977 56.1636C23.3905 56.1636 24.6831 55.6718 25.6672 54.6877L42.2092 38.1457C42.6617 37.6932 42.6617 36.9597 42.2092 36.5078C41.7567 36.0553 41.0233 36.0553 40.5709 36.5078L24.0289 53.0498C22.9642 54.1144 21.2318 54.1144 20.1671 53.0498L3.11655 35.9992C2.60075 35.4834 2.3166 34.7974 2.3166 34.0681C2.3166 33.3387 2.60075 32.6528 3.11655 32.1369L29.3896 5.8639C29.6607 5.59287 30.0208 5.44355 30.4041 5.44355H30.405L48.0039 5.45351C49.5097 5.45396 50.7345 6.68014 50.7336 8.18592L50.7282 17.8922H45.5109C45.0615 17.8922 44.6547 17.7084 44.3607 17.4125C44.8453 17.2048 45.2996 16.9048 45.6945 16.5098C47.3591 14.8448 47.3591 12.1364 45.6945 10.4718C44.0295 8.80671 41.3211 8.80671 39.656 10.4718C37.9914 12.1364 37.9914 14.8448 39.656 16.5098C40.2731 17.127 41.0342 17.5148 41.8319 17.6745C42.3988 19.1545 43.8336 20.2088 45.5109 20.2088H50.7268L50.7237 25.7613C50.7237 26.1446 50.5743 26.5043 50.3033 26.7748L47.1234 29.9552C46.6709 30.4076 46.6709 31.1411 47.1234 31.5936C47.5755 32.0456 48.3088 32.0456 48.7613 31.5936L51.9417 28.4132C52.6493 27.7051 53.0398 26.764 53.0403 25.7627L53.0434 20.2088H55.3668C57.5382 20.2088 59.305 18.4424 59.305 16.2705C59.305 14.0991 57.5382 12.3323 55.3668 12.3323ZM41.2943 12.1097C41.6753 11.7287 42.1753 11.5387 42.6757 11.5387C43.1757 11.5387 43.6756 11.7291 44.0566 12.1097C44.177 12.2305 44.2765 12.3639 44.3589 12.5047C43.0875 12.8943 42.0885 13.9118 41.7233 15.1941C41.5699 15.1086 41.4247 15.0022 41.2943 14.8719C40.5328 14.11 40.5328 12.8712 41.2943 12.1097ZM55.3668 17.8922H53.0448L53.0466 14.6489H55.3668C56.2609 14.6489 56.9884 15.3765 56.9884 16.2705C56.9884 17.1645 56.2609 17.8922 55.3668 17.8922Z" fill="#3BB77E"/>
<path d="M18.697 32.3519C18.8395 32.8644 19.3051 33.1998 19.8118 33.1998C19.915 33.1998 20.0195 33.1862 20.1232 33.1572L32.0139 29.8475C32.6301 29.676 32.9907 29.0371 32.8192 28.4208C32.6477 27.8051 32.0093 27.4445 31.3926 27.6159L19.5019 30.9252C18.8861 31.0972 18.5255 31.7356 18.697 32.3519Z" fill="#3BB77E"/>
<path d="M23.9301 33.8795C23.2848 34.5248 22.9297 35.3822 22.9297 36.2948C22.9297 37.207 23.2848 38.0644 23.9301 38.7096C24.5961 39.3752 25.4703 39.7082 26.3448 39.7082C27.2194 39.7082 28.0941 39.3752 28.7601 38.7096C30.0916 37.378 30.0916 35.2111 28.7601 33.8795C27.4285 32.548 25.2616 32.548 23.9301 33.8795ZM27.1217 37.0712C26.6932 37.4997 25.9965 37.4997 25.568 37.0712C25.3603 36.864 25.2463 36.588 25.2463 36.2944C25.2463 36.0011 25.3607 35.7251 25.568 35.5175C25.7824 35.3034 26.0638 35.1962 26.3448 35.1962C26.6263 35.1962 26.9077 35.3034 27.1217 35.5175C27.5502 35.9459 27.5502 36.6432 27.1217 37.0712Z" fill="#3BB77E"/>
<path d="M29.3345 26.9837C30.6661 25.6517 30.6661 23.4853 29.3345 22.1537C28.6894 21.5085 27.8315 21.1533 26.9193 21.1533C26.0071 21.1533 25.1493 21.5085 24.5045 22.1537C23.173 23.4853 23.173 25.6517 24.5045 26.9837C25.1705 27.6493 26.0447 27.9823 26.9193 27.9823C27.7939 27.9823 28.6685 27.6493 29.3345 26.9837ZM26.1425 23.7916C26.3501 23.5839 26.6261 23.4699 26.9193 23.4699C27.2129 23.4699 27.4889 23.5839 27.6962 23.7916C28.1247 24.2201 28.1247 24.9169 27.6962 25.3453C27.2681 25.7738 26.5709 25.7738 26.1425 25.3453C25.7144 24.9169 25.7144 24.2201 26.1425 23.7916Z" fill="#3BB77E"/>
<path d="M11.5208 29.9575C11.0684 29.505 10.335 29.505 9.8825 29.9575L6.5913 33.2487C6.37411 33.4659 6.25195 33.7604 6.25195 34.0676C6.25195 34.3749 6.37411 34.6694 6.5913 34.8866L21.2796 49.5749C21.5054 49.8006 21.8022 49.9138 22.0985 49.9138C22.3949 49.9138 22.6912 49.8006 22.9175 49.5749L44.8781 27.6138C45.3306 27.1613 45.3306 26.4278 44.8781 25.9754L30.1904 11.2876C29.9732 11.0704 29.6786 10.9482 29.3714 10.9482C29.0642 10.9482 28.7696 11.0704 28.5524 11.2876L16.435 23.4049C15.9826 23.8574 15.9826 24.5909 16.435 25.0433C16.8871 25.4953 17.6205 25.4953 18.0729 25.0433L29.3714 13.7449L42.4213 26.7948L22.0985 47.1175L9.04859 34.0676L11.5208 31.5954C11.9729 31.143 11.9733 30.4099 11.5208 29.9575Z" fill="#3BB77E"/>
<path d="M44.6662 32.8926C44.3612 32.8926 44.0626 33.0165 43.8472 33.2319C43.6318 33.4473 43.5078 33.7464 43.5078 34.0508C43.5078 34.3554 43.6318 34.6544 43.8472 34.8698C44.0626 35.0852 44.3612 35.2092 44.6662 35.2092C44.9706 35.2092 45.2692 35.0852 45.4851 34.8698C45.7005 34.6544 45.8244 34.3554 45.8244 34.0508C45.8244 33.7464 45.7005 33.4473 45.4851 33.2319C45.2692 33.0165 44.9706 32.8926 44.6662 32.8926Z" fill="#3BB77E"/>
<path d="M14.7951 28.3191C15.0119 28.1037 15.135 27.806 15.135 27.5001C15.135 27.1956 15.0119 26.8979 14.7951 26.6811C14.5798 26.4658 14.282 26.3418 13.9766 26.3418C13.6716 26.3418 13.373 26.4658 13.1577 26.6811C12.9419 26.8965 12.8184 27.1956 12.8184 27.5001C12.8184 27.806 12.9419 28.1037 13.1577 28.3191C13.374 28.5358 13.6716 28.6584 13.9766 28.6584C14.282 28.6584 14.5798 28.5358 14.7951 28.3191Z" fill="#3BB77E"/>
</g>
</g>
<defs>
<clipPath id="clip0_6582_1428">
<rect width="60" height="60" fill="white"/>
</clipPath>
</defs>
</svg>
